<?xml version="1.0" encoding="utf-8"?>
<!-- Generator: Adobe Illustrator 16.0.0, SVG Export Plug-In . SVG Version: 6.00 Build 0)  -->
<!DOCTYPE svg PUBLIC "-//W3C//DTD SVG 1.1//EN" "http://www.w3.org/Graphics/SVG/1.1/DTD/svg11.dtd">
<svg version="1.1" id="Layer_1" xmlns="http://www.w3.org/2000/svg" xmlns:xlink="http://www.w3.org/1999/xlink" x="0px" y="0px"
	 width="96px" height="96px" viewBox="0 0 96 96" enable-background="new 0 0 96 96" xml:space="preserve">
<g>
	<path fill="#45C1BF" d="M19.341,89.563c-1.344,0-2.686-0.356-3.88-1.066c-2.299-1.368-3.707-3.846-3.707-6.521v-67.95
		c0-2.689,1.423-5.176,3.74-6.54c1.187-0.697,2.516-1.047,3.847-1.047c1.27,0,2.539,0.318,3.687,0.956l61.848,34.388
		c2.42,1.346,3.914,3.901,3.9,6.67c-0.014,2.768-1.535,5.309-3.968,6.629L22.959,88.644C21.829,89.257,20.584,89.563,19.341,89.563z
		"/>
	<polygon fill="#45C1BF" points="19.341,81.976 19.341,14.025 81.188,48.413 	"/>
</g>
</svg>
